<svg xmlns="http://www.w3.org/2000/svg" width="256" height="256" viewBox="0 0 256 256">
  <defs>
    <linearGradient id="g" x1="0" y1="0" x2="1" y2="1">
      <stop offset="0%" stop-color="#6366f1"/>
      <stop offset="55%" stop-color="#3b82f6"/>
      <stop offset="100%" stop-color="#10b981"/>
    </linearGradient>
  </defs>
  <rect x="16" y="32" width="224" height="192" rx="28" fill="url(#g)"/>
  <rect x="36" y="52" width="184" height="152" rx="18" fill="#0b1220" opacity=".15"/>
  <g fill="#fff">
    <path d="M64 96h96a8 8 0 0 1 0 16H64a8 8 0 0 1 0-16Zm0 40h128a8 8 0 0 1 0 16H64a8 8 0 0 1 0-16Zm0 40h88a8 8 0 0 1 0 16H64a8 8 0 0 1 0-16Z"/>
    <circle cx="188" cy="84" r="12"/>
  </g>
</svg>

